<svg xmlns="http://www.w3.org/2000/svg" version="1.1" xmlns:xlink="http://www.w3.org/1999/xlink" xmlns:svgjs="http://svgjs.com/svgjs" width="512" height="512" x="0" y="0" viewBox="0 0 32 32" style="enable-background:new 0 0 512 512" xml:space="preserve" class=""><g><g id="Line"><path d="m27 8h-4.08a7 7 0 0 0 -13.84 0h-4.08a3 3 0 0 0 -3 3v16a3 3 0 0 0 3 3h22a3 3 0 0 0 3-3v-16a3 3 0 0 0 -3-3zm1 3v3h-7.11a7 7 0 0 0 2-4h4.11a1 1 0 0 1 1 1zm-12-7a5 5 0 1 1 -5 5 5 5 0 0 1 5-5zm-11 6h4.08a7 7 0 0 0 2 4h-7.08v-3a1 1 0 0 1 1-1zm22 18h-22a1 1 0 0 1 -1-1v-11h24v11a1 1 0 0 1 -1 1z" fill="#0d187d" data-original="#000000" class=""></path><path d="m13 22h-6a1 1 0 0 0 0 2h6a1 1 0 0 0 0-2z" fill="#0d187d" data-original="#000000" class=""></path><path d="m25 22h-1a1 1 0 0 0 0 2h1a1 1 0 0 0 0-2z" fill="#0d187d" data-original="#000000" class=""></path><path d="m21 22h-1a1 1 0 0 0 0 2h1a1 1 0 0 0 0-2z" fill="#0d187d" data-original="#000000" class=""></path><path d="m14 10h1v1a1 1 0 0 0 2 0v-1h1a1 1 0 0 0 0-2h-1v-1a1 1 0 0 0 -2 0v1h-1a1 1 0 0 0 0 2z" fill="#0d187d" data-original="#000000" class=""></path></g></g></svg>