<svg xmlns="http://www.w3.org/2000/svg" version="1.1" xmlns:xlink="http://www.w3.org/1999/xlink" xmlns:svgjs="http://svgjs.com/svgjs" width="512" height="512" x="0" y="0" viewBox="0 0 24 24" style="enable-background:new 0 0 512 512" xml:space="preserve" class=""><g><path d="M22,.5H2A1.5017,1.5017,0,0,0,.5,2V6A1.5017,1.5017,0,0,0,2,7.5H4.5V23a.5.5,0,0,0,.5.5H19a.5.5,0,0,0,.5-.5V7.5H22A1.5017,1.5017,0,0,0,23.5,6V2A1.5017,1.5017,0,0,0,22,.5Zm-7.4495,4A4.477,4.477,0,0,0,18.5,8.45v10.101a4.477,4.477,0,0,0-3.95,3.95H9.45a4.477,4.477,0,0,0-3.95-3.95V8.45A4.477,4.477,0,0,0,9.45,4.5ZM18.5,7.4648A3.5113,3.5113,0,0,1,15.5352,4.5H18.5Zm-13,0V4.5H8.4648A3.5113,3.5113,0,0,1,5.5,7.4648ZM5.5,22.5V19.5352A3.5113,3.5113,0,0,1,8.4648,22.5Zm13,0H15.5352A3.5113,3.5113,0,0,1,18.5,19.5352ZM22.5,6a.501.501,0,0,1-.5.5H19.5v-2H20a.5.5,0,0,0,0-1H4a.5.5,0,0,0,0,1h.5v2H2A.501.501,0,0,1,1.5,6V2A.501.501,0,0,1,2,1.5H22a.501.501,0,0,1,.5.5Z" fill="#0d187d" data-original="#000000" class=""></path><path d="M12.5,14.5h-2a.5.5,0,0,0,0,1h1V16a.5.5,0,0,0,1,0v-.5a1.5,1.5,0,0,0,0-3h-1a.5.5,0,0,1,0-1h2a.5.5,0,0,0,0-1h-1V10a.5.5,0,0,0-1,0v.5a1.5,1.5,0,0,0,0,3h1a.5.5,0,0,1,0,1Z" fill="#0d187d" data-original="#000000" class=""></path></g></svg>